HIERARCHY
ROOT Hips
{
	OFFSET 0.00000 0.00000 0.00000
	CHANNELS 6 Xposition Yposition Zposition Zrotation Yrotation Xrotation 
	JOINT LHipJoint
	{
		OFFSET 0 0 0
		CHANNELS 3 Zrotation Yrotation Xrotation
		JOINT LeftUpLeg
		{
			OFFSET 1.36337 -1.57426 1.11036
			CHANNELS 3 Zrotation Yrotation Xrotation
			JOINT LeftLeg
			{
				OFFSET 2.38468 -6.55187 0.00000
				CHANNELS 3 Zrotation Yrotation Xrotation
				JOINT LeftFoot
				{
					OFFSET 2.37166 -6.51609 0.00000
					CHANNELS 3 Zrotation Yrotation Xrotation
					JOINT LeftToeBase
					{
						OFFSET 0.29078 -0.79891 2.01393
						CHANNELS 3 Zrotation Yrotation Xrotation
						End Site
						{
							OFFSET 0.00000 -0.00000 1.07924
						}
					}
				}
			}
		}
	}
	JOINT RHipJoint
	{
		OFFSET 0 0 0
		CHANNELS 3 Zrotation Yrotation Xrotation
		JOINT RightUpLeg
		{
			OFFSET -1.36349 -1.57426 1.11036
			CHANNELS 3 Zrotation Yrotation Xrotation
			JOINT RightLeg
			{
				OFFSET -2.29562 -6.30717 0.00000
				CHANNELS 3 Zrotation Yrotation Xrotation
				JOINT RightFoot
				{
					OFFSET -2.40985 -6.62100 0.00000
					CHANNELS 3 Zrotation Yrotation Xrotation
					JOINT RightToeBase
					{
						OFFSET -0.23197 -0.63733 1.92232
						CHANNELS 3 Zrotation Yrotation Xrotation
						End Site
						{
							OFFSET -0.00000 -0.00000 1.01562
						}
					}
				}
			}
		}
	}
	JOINT LowerBack
	{
		OFFSET 0 0 0
		CHANNELS 3 Zrotation Yrotation Xrotation
		JOINT Spine
		{
			OFFSET -0.08565 2.03602 -0.24562
			CHANNELS 3 Zrotation Yrotation Xrotation
			JOINT Spine1
			{
				OFFSET -0.00036 2.05693 0.00216
				CHANNELS 3 Zrotation Yrotation Xrotation
				JOINT Neck
				{
					OFFSET 0 0 0
					CHANNELS 3 Zrotation Yrotation Xrotation
					JOINT Neck1
					{
						OFFSET -0.03664 1.69515 0.31789
						CHANNELS 3 Zrotation Yrotation Xrotation
						JOINT Head
						{
							OFFSET 0.00932 1.70181 -0.46013
							CHANNELS 3 Zrotation Yrotation Xrotation
							End Site
							{
								OFFSET 0.01243 1.77620 -0.19377
							}
						}
					}
				}
				JOINT LeftShoulder
				{
					OFFSET 0 0 0
					CHANNELS 3 Zrotation Yrotation Xrotation
					JOINT LeftArm
					{
						OFFSET 3.74344 0.81315 -0.36647
						CHANNELS 3 Zrotation Yrotation Xrotation
						JOINT LeftForeArm
						{
							OFFSET 4.97185 -0.00000 -0.00000
							CHANNELS 3 Zrotation Yrotation Xrotation
							JOINT LeftHand
							{
								OFFSET 3.35811 -0.00000 0.00000
								CHANNELS 3 Zrotation Yrotation Xrotation
								JOINT LeftFingerBase
								{
									OFFSET 0 0 0
									CHANNELS 3 Zrotation Yrotation Xrotation
									JOINT LeftHandIndex1
									{
										OFFSET 0.62278 -0.00000 0.00000
										CHANNELS 3 Zrotation Yrotation Xrotation
										End Site
										{
											OFFSET 0.50210 -0.00000 0.00000
										}
									}
								}
								JOINT LThumb
								{
									OFFSET 0 0 0
									CHANNELS 3 Zrotation Yrotation Xrotation
									End Site
									{
										OFFSET 0.50976 -0.00000 0.50976
									}
								}
							}
						}
					}
				}
				JOINT RightShoulder
				{
					OFFSET 0 0 0
					CHANNELS 3 Zrotation Yrotation Xrotation
					JOINT RightArm
					{
						OFFSET -3.75385 0.50666 -0.06525
						CHANNELS 3 Zrotation Yrotation Xrotation
						JOINT RightForeArm
						{
							OFFSET -4.96493 -0.00000 -0.00000
							CHANNELS 3 Zrotation Yrotation Xrotation
							JOINT RightHand
							{
								OFFSET -3.34929 -0.00000 0.00000
								CHANNELS 3 Zrotation Yrotation Xrotation
								JOINT RightFingerBase
								{
									OFFSET 0 0 0
									CHANNELS 3 Zrotation Yrotation Xrotation
									JOINT RightHandIndex1
									{
										OFFSET -0.63804 -0.00000 0.00000
										CHANNELS 3 Zrotation Yrotation Xrotation
										End Site
										{
											OFFSET -0.51441 -0.00000 0.00000
										}
									}
								}
								JOINT RThumb
								{
									OFFSET 0 0 0
									CHANNELS 3 Zrotation Yrotation Xrotation
									End Site
									{
										OFFSET -0.52226 -0.00000 0.52226
									}
								}
							}
						}
					}
				}
			}
		}
	}
}
MOTION
Frames: 14
Frame Time: .0083333
-2.6218 16.8487 -0.6071 0 0 0 0 0 0 -21 0 0 0 0 0 0 0 0 0 0 0 0 0 0 21 0 0 0 0 0 0 0 0 0 0 0 0 0 0 0 0 0 0 0 0 0 0 -16 0 0 21 0 0 11 0 0 0 -8 0 0 0 0 0 0 0 0 0 0 0 0 0 0 0 0 0 0 0 0 8 0 0 0 0 0 0 0 0 0 0 0 0 0 0 0 0 0
-2.6218 16.8487 -0.6071 140.3140 84.9273 144.9170 0.0000 0.0000 0.0000 -18.5283 -9.8797 -3.6617 1.3190 7.2739 20.5293 1.2947 12.4194 -29.1948 0.1353 2.3709 6.5317 0.0000 0.0000 0.0000 10.7513 3.8049 -2.6174 -0.6452 -5.1386 14.3043 -0.0954 -19.0877 -27.7486 -0.0952 -1.9901 5.4784 -6.8297 -0.6580 -5.0009 0.4219 -0.4653 0.5820 4.2394 -0.3647 3.4760 -2.2945 1.7099 -24.4413 -0.2618 3.6858 26.3190 0.9621 1.4332 12.8200 -0.0000 0.0000 0.0000 -92.8195 -3.9453 22.1478 11.2673 -18.6969 -1.8607 -0.0000 0.0000 -2.9918 24.1079 -7.9873 -3.5581 -7.1250 0.0000 -0.0000 -1.9822 21.2426 1.1300 -0.0000 0.0000 0.0000 86.3869 2.9516 18.4115 -12.2414 20.1657 -2.1848 0.0000 -0.0000 -5.3502 -16.4340 -30.6407 8.5491 7.1250 -0.0000 -0.0000 17.6124 -60.8139 -6.9112
-2.6169 16.8500 -0.6143 137.0830 84.9427 141.7030 0.0000 0.0000 0.0000 -18.8489 -9.9247 -3.3942 1.2728 7.1504 20.1617 1.2357 12.8907 -29.2023 0.1214 2.2458 6.1853 0.0000 0.0000 0.0000 10.4199 3.4283 -3.1098 -0.6929 -5.3213 14.8274 -0.1720 -18.3893 -27.4132 -0.0887 -1.9209 5.2872 -6.9597 -0.6033 -5.1513 0.3616 -0.3673 0.6473 4.2571 -0.3243 3.6177 -2.3999 1.6869 -24.5051 -0.2005 3.6765 26.3229 1.0025 1.4259 12.8307 -0.0000 -0.0000 0.0000 -92.8644 -4.1242 21.6664 11.1468 -18.5129 -1.8222 -0.0000 0.0000 -1.9796 23.6821 -7.8838 -3.4428 -7.1250 0.0000 -0.0000 -2.2880 21.3842 1.2973 -0.0000 -0.0000 0.0000 86.4737 2.9568 17.8260 -12.3631 20.3469 -2.2269 0.0000 -0.0000 -4.8476 -16.1624 -31.3588 8.5767 7.1250 -0.0000 -0.0000 18.4643 -61.4284 -7.5286
-2.6113 16.8503 -0.6179 135.4940 84.9393 140.1170 0.0000 0.0000 0.0000 -19.0065 -9.9066 -3.3072 1.2668 7.1342 20.1135 1.2347 12.9875 -29.2800 0.1093 2.1316 5.8695 0.0000 0.0000 0.0000 10.2566 3.2932 -3.2115 -0.6991 -5.3446 14.8941 -0.1598 -18.3027 -27.2051 -0.0950 -1.9880 5.4724 -7.0243 -0.6003 -5.2573 0.3183 -0.3465 0.7085 4.2498 -0.3205 3.7393 -2.4118 1.6932 -24.6131 -0.1836 3.6878 26.3506 1.0148 1.4299 12.8626 -0.0000 -0.0000 0.0000 -92.8466 -4.2513 21.1802 11.0725 -18.3993 -1.7987 -0.0000 0.0000 -1.0755 23.0258 -7.9345 -3.3576 -7.1250 0.0000 -0.0000 -2.7655 21.3724 1.5693 -0.0000 -0.0000 0.0000 86.6194 2.9995 17.2435 -12.4755 20.5140 -2.2662 0.0000 -0.0000 -4.2852 -15.8956 -31.5098 8.4655 7.1250 -0.0000 -0.0000 18.8760 -61.5048 -7.7374
-2.6095 16.8482 -0.6222 135.0040 85.0193 139.6380 0.0000 0.0000 0.0000 -19.0164 -9.8325 -3.2564 1.2567 7.1066 20.0315 1.2385 13.0211 -29.3356 0.1093 2.1319 5.8704 0.0000 0.0000 0.0000 10.2431 3.1478 -3.3421 -0.7079 -5.3773 14.9879 -0.1490 -18.2319 -27.0265 -0.0738 -1.7529 4.8234 -6.9254 -0.5780 -5.3057 0.2955 -0.3170 0.7541 4.1725 -0.3072 3.8095 -2.4075 1.6884 -24.7085 -0.1786 3.6764 26.3262 1.0147 1.4245 12.8718 0.0000 0.0000 0.0000 -92.7979 -4.3559 20.8296 10.9970 -18.2837 -1.7750 -0.0000 0.0000 -0.2833 22.4452 -8.2463 -3.3908 -7.1250 0.0000 -0.0000 -3.1928 21.0740 1.8340 0.0000 0.0000 0.0000 86.7798 3.0319 16.6189 -12.6085 20.7109 -2.3130 0.0000 -0.0000 -3.7364 -15.7719 -31.4801 8.3902 7.1250 -0.0000 -0.0000 18.9863 -61.4463 -7.7581
-2.6128 16.8494 -0.6289 134.6200 85.2794 139.2870 0.0000 0.0000 0.0000 -18.8991 -9.7861 -3.2886 1.2567 7.1066 20.0315 1.2569 13.1014 -29.5299 0.1346 2.3649 6.5151 0.0000 0.0000 0.0000 10.3441 3.0379 -3.5148 -0.7048 -5.3658 14.9550 -0.1403 -18.0587 -26.7292 -0.0587 -1.5627 4.2987 -6.6754 -0.5053 -5.3040 0.3178 -0.2384 0.7520 4.0616 -0.2628 3.7945 -2.4069 1.6731 -24.7355 -0.1949 3.6583 26.3066 1.0051 1.4139 12.8700 0.0000 0.0000 0.0000 -92.7873 -4.4016 20.7044 10.9430 -18.2008 -1.7581 -0.0000 -0.0000 0.1099 22.3321 -8.3701 -3.4220 -7.1250 0.0000 -0.0000 -3.2771 20.9483 1.8919 0.0000 0.0000 0.0000 86.9142 2.8529 16.0040 -12.8357 21.0460 -2.3940 0.0000 -0.0000 -3.2262 -15.5863 -31.6018 8.3161 7.1250 -0.0000 -0.0000 19.2867 -61.5148 -7.9174
-2.6178 16.8517 -0.6356 132.7960 85.5266 137.4700 0.0000 0.0000 0.0000 -18.8906 -9.9170 -3.2375 1.2628 7.1233 20.0811 1.3220 13.1433 -29.9995 0.1930 2.8289 7.8029 0.0000 0.0000 0.0000 10.3370 3.1363 -3.5995 -0.6953 -5.3303 14.8530 -0.1293 -17.9512 -26.4990 -0.0618 -1.6036 4.4113 -6.5281 -0.4232 -5.2230 0.3218 -0.1462 0.7258 3.9905 -0.2105 3.7092 -2.3576 1.6643 -24.7404 -0.2702 3.6526 26.3422 0.9675 1.4054 12.8886 -0.0000 -0.0000 0.0000 -92.8065 -4.4475 20.0450 10.8637 -18.0790 -1.7334 -0.0000 -0.0000 1.3209 21.7997 -8.4204 -3.3519 -7.1250 0.0000 -0.0000 -3.6627 20.9294 2.1169 -0.0000 -0.0000 0.0000 87.1515 2.2791 15.1736 -13.3659 21.8210 -2.5877 0.0000 -0.0000 -2.4708 -15.1260 -31.8621 8.1206 7.1250 -0.0000 -0.0000 20.0012 -61.6442 -8.2852
-2.6212 16.8516 -0.6402 130.8290 85.5810 135.5080 0.0000 0.0000 0.0000 -19.0049 -10.0897 -3.1809 1.2684 7.1385 20.1262 1.3651 13.1817 -30.3150 0.2177 3.0035 8.2885 0.0000 0.0000 0.0000 10.2231 3.2397 -3.6017 -0.6864 -5.2967 14.7569 -0.1042 -17.9961 -26.3551 -0.0530 -1.4857 4.0863 -6.5512 -0.4008 -5.1538 0.2859 -0.1185 0.7228 3.9683 -0.1951 3.6637 -2.2675 1.6627 -24.7771 -0.3774 3.6515 26.3807 0.9120 1.3980 12.9164 -0.0000 -0.0000 0.0000 -92.8087 -4.4992 19.8495 10.8264 -18.0217 -1.7218 -0.0000 -0.0000 1.4596 21.8671 -8.3151 -3.3217 -7.1250 0.0000 -0.0000 -3.6122 21.0378 2.0788 -0.0000 -0.0000 0.0000 87.1707 2.2617 15.2142 -13.3986 21.8684 -2.5999 0.0000 -0.0000 -2.5072 -15.0379 -31.8687 8.0732 7.1250 -0.0000 -0.0000 20.1021 -61.6286 -8.3214
-2.6230 16.8525 -0.6438 130.6250 85.5865 135.3490 0.0000 0.0000 0.0000 -19.0211 -10.1160 -3.2451 1.2694 7.1411 20.1341 1.3559 13.2621 -30.3241 0.1998 2.8783 7.9400 0.0000 0.0000 0.0000 10.2012 3.1996 -3.6741 -0.6829 -5.2835 14.7189 -0.0815 -18.0498 -26.2412 -0.0462 -1.3877 3.8163 -6.5430 -0.4384 -5.1666 0.2779 -0.1675 0.7338 3.9514 -0.2203 3.6882 -2.2236 1.6697 -24.8425 -0.4264 3.6618 26.4051 0.8888 1.3986 12.9415 0.0000 0.0000 0.0000 -92.8037 -4.5866 19.6300 10.7838 -17.9561 -1.7087 -0.0000 -0.0000 1.6292 21.9195 -8.1553 -3.2670 -7.1250 0.0000 -0.0000 -3.5718 21.2057 2.0418 0.0000 0.0000 0.0000 87.1702 2.3553 15.2602 -13.3513 21.7997 -2.5823 0.0000 -0.0000 -2.5256 -15.0439 -31.6985 8.0384 7.1250 -0.0000 -0.0000 19.9537 -61.4715 -8.1828
-2.6229 16.8545 -0.6459 131.1510 85.6368 135.9120 0.0000 0.0000 0.0000 -18.9525 -10.1147 -3.2730 1.2670 7.1346 20.1148 1.3613 13.2772 -30.3724 0.1977 2.8632 7.8981 0.0000 0.0000 0.0000 10.2608 3.1370 -3.7640 -0.6844 -5.2892 14.7354 -0.0735 -18.0218 -26.1378 -0.0525 -1.4783 4.0659 -6.4810 -0.4596 -5.2122 0.2992 -0.1969 0.7525 3.9361 -0.2360 3.7365 -2.2446 1.6681 -24.8654 -0.4198 3.6626 26.3603 0.8944 1.3975 12.9272 0.0000 0.0000 0.0000 -92.7917 -4.6317 19.5090 10.7733 -17.9400 -1.7054 -0.0000 -0.0000 1.8001 21.8477 -8.1196 -3.2411 -7.1250 0.0000 -0.0000 -3.6232 21.2486 2.0678 0.0000 0.0000 0.0000 87.1504 2.4578 15.2277 -13.2857 21.7043 -2.5580 0.0000 -0.0000 -2.5017 -15.0772 -31.6216 8.0396 7.1250 -0.0000 -0.0000 19.8540 -61.4079 -8.1101
-2.6201 16.8556 -0.6483 130.4210 85.6591 135.1890 0.0000 0.0000 0.0000 -18.9987 -10.1338 -3.2125 1.2644 7.1277 20.0943 1.3840 13.2484 -30.4944 0.1991 2.8730 7.9255 0.0000 0.0000 0.0000 10.2071 2.9921 -3.8508 -0.6860 -5.2953 14.7526 -0.0860 -17.8152 -25.9619 -0.0509 -1.4558 4.0038 -6.4831 -0.4422 -5.2801 0.2819 -0.1668 0.7789 3.9219 -0.2236 3.7989 -2.2525 1.6685 -24.8026 -0.4155 3.6590 26.2872 0.8948 1.3973 12.8847 -0.0000 0.0000 0.0000 -92.7534 -4.6650 19.5116 10.7547 -17.9112 -1.6997 -0.0000 -0.0000 1.8767 21.7225 -8.3516 -3.3118 -7.1250 0.0000 -0.0000 -3.7174 21.0081 2.1421 -0.0000 0.0000 0.0000 87.1501 2.4684 15.1854 -13.2845 21.7027 -2.5575 0.0000 -0.0000 -2.5155 -15.1121 -31.8878 8.1187 7.1250 -0.0000 -0.0000 20.0379 -61.6648 -8.3108
-2.6229 16.8557 -0.6490 128.9070 85.6175 133.6860 0.0000 0.0000 0.0000 -19.1270 -10.1530 -3.1960 1.2586 7.1119 20.0472 1.3803 13.3148 -30.5280 0.2010 2.8867 7.9635 0.0000 0.0000 0.0000 10.0891 3.1130 -3.8703 -0.6890 -5.3066 14.7852 -0.0908 -17.8251 -26.0155 -0.0418 -1.3201 3.6300 -6.5875 -0.4330 -5.2598 0.2359 -0.1469 0.7784 3.9344 -0.2147 3.7852 -2.1860 1.7000 -24.7819 -0.4526 3.6922 26.3300 0.8759 1.4135 12.8999 0.0000 0.0000 0.0000 -92.7167 -4.7068 19.4502 10.7131 -17.8472 -1.6870 -0.0000 -0.0000 1.9236 21.7127 -8.5823 -3.4007 -7.1250 0.0000 -0.0000 -3.7282 20.7618 2.1690 0.0000 0.0000 0.0000 87.1898 2.3957 15.1645 -13.3468 21.7932 -2.5806 0.0000 -0.0000 -2.5174 -14.9724 -32.0025 8.0667 7.1250 -0.0000 -0.0000 20.2859 -61.7368 -8.4531
-2.6212 16.8584 -0.6500 128.9850 85.6116 133.7890 0.0000 0.0000 0.0000 -19.1285 -10.1844 -3.1740 1.2490 7.0856 19.9692 1.3681 13.3878 -30.5118 0.2105 2.9537 8.1498 0.0000 0.0000 0.0000 10.0885 3.1703 -3.9305 -0.6969 -5.3363 14.8703 -0.0686 -17.9691 -26.0261 -0.0386 -1.2685 3.4880 -6.6044 -0.4592 -5.3071 0.2294 -0.1768 0.7738 3.9346 -0.2305 3.8107 -2.0429 1.7401 -24.7826 -0.5733 3.7357 26.3956 0.8143 1.4297 12.9325 -0.0000 -0.0000 0.0000 -92.7105 -4.7755 19.2170 10.6377 -17.7308 -1.6639 -0.0000 -0.0000 2.0780 21.7006 -8.6135 -3.4109 -7.1250 0.0000 -0.0000 -3.7374 20.7293 2.1772 -0.0000 -0.0000 0.0000 87.2426 2.3061 15.1053 -13.3991 21.8692 -2.6001 0.0000 -0.0000 -2.4073 -14.8104 -31.8918 7.9522 7.1250 -0.0000 -0.0000 20.3673 -61.5937 -8.4194
-2.6165 16.8626 -0.6510 128.8830 85.6521 133.6940 0.0000 0.0000 0.0000 -19.1084 -10.1621 -3.1290 1.2388 7.0577 19.8865 1.3463 13.5081 -30.4751 0.2027 2.8990 7.9978 0.0000 0.0000 0.0000 10.1116 3.1706 -4.0132 -0.7071 -5.3743 14.9794 -0.0437 -18.0448 -25.9220 -0.0419 -1.3216 3.6342 -6.6063 -0.4633 -5.3494 0.2359 -0.1798 0.7556 3.9421 -0.2318 3.8160 -1.9525 1.7477 -24.7437 -0.6571 3.7410 26.4498 0.7682 1.4298 12.9509 0.0000 0.0000 0.0000 -92.6968 -4.7804 19.1196 10.5905 -17.6579 -1.6496 -0.0000 -0.0000 2.1316 21.6170 -8.5635 -3.3769 -7.1250 0.0000 -0.0000 -3.7969 20.7883 2.2069 0.0000 0.0000 0.0000 87.2601 2.2018 15.1116 -13.4228 21.9036 -2.6089 0.0000 -0.0000 -2.3794 -14.8651 -31.7520 7.9516 7.1250 -0.0000 -0.0000 20.1911 -61.4772 -8.2874
